<?xml version="1.0" standalone="no"?>
<!DOCTYPE svg PUBLIC "-//W3C//DTD SVG 20010904//EN"
 "http://www.w3.org/TR/2001/REC-SVG-20010904/DTD/svg10.dtd">
<svg version="1.0" xmlns="http://www.w3.org/2000/svg"
 width="256.000000pt" height="256.000000pt" viewBox="0 0 256.000000 256.000000"
 preserveAspectRatio="xMidYMid meet">
<metadata>
Created by potrace 1.13, written by Peter Selinger 2001-2015
</metadata>
<g transform="translate(0.000000,256.000000) scale(0.100000,-0.100000)"
fill="#000000" stroke="none">
<path d="M1075 2434 c-144 -31 -245 -97 -290 -189 l-27 -55 -112 -35 c-262
-81 -393 -171 -474 -323 -84 -157 -83 -386 2 -601 67 -169 174 -338 432 -683
177 -237 244 -339 244 -373 0 -53 59 -84 94 -49 20 19 20 50 1 104 -24 68 -76
147 -258 388 -261 347 -373 529 -431 704 -98 290 -23 526 203 647 59 31 251
101 278 101 7 0 13 -11 13 -26 0 -49 32 -149 73 -229 76 -147 243 -287 370
-310 l37 -7 0 -62 c0 -60 -1 -62 -35 -80 -81 -44 -111 -170 -45 -191 28 -9 70
20 70 48 0 28 9 41 38 56 37 19 82 -11 82 -56 0 -28 42 -57 70 -48 66 21 36
147 -45 191 -34 18 -35 20 -35 80 l0 62 33 6 c18 3 64 21 102 39 166 80 304
269 338 465 6 34 16 62 22 62 26 0 219 -71 276 -101 182 -97 272 -282 240
-495 -33 -222 -144 -425 -468 -856 -182 -241 -234 -320 -258 -388 -19 -54 -19
-85 1 -104 35 -35 94 -4 94 49 0 34 66 135 233 358 393 525 507 752 507 1014
0 315 -153 489 -532 607 l-117 37 -20 43 c-42 96 -157 171 -303 201 -98 19
-308 19 -403 -1z m323 -94 c120 -15 188 -43 244 -100 61 -64 76 -124 54 -228
-22 -108 -70 -195 -151 -278 -95 -96 -163 -129 -265 -129 -96 0 -167 32 -251
112 -132 126 -202 310 -165 436 43 148 255 222 534 187z"/>
<path d="M980 2110 c-11 -11 -20 -28 -20 -38 0 -25 133 -152 158 -152 27 0 52
26 52 54 0 26 -128 156 -154 156 -9 0 -25 -9 -36 -20z"/>
<path d="M1459 2063 c-72 -69 -84 -97 -53 -127 8 -9 25 -16 36 -16 25 0 158
127 158 152 0 22 -34 58 -56 58 -9 0 -47 -30 -85 -67z"/>
</g>
</svg>
